HIERARCHY
ROOT hip
{
  OFFSET -0.419052 39.809 0.161344
  CHANNELS 6 Xposition Yposition Zposition Zrotation Xrotation Yrotation
  JOINT abdomen
  {
    OFFSET 0 7.2397 0
    CHANNELS 6 Xposition Yposition Zposition Zrotation Xrotation Yrotation
    JOINT chest
    {
      OFFSET 0 16.546 0
      CHANNELS 6 Xposition Yposition Zposition Zrotation Xrotation Yrotation
      JOINT neck
      {
        OFFSET 0 34.2149 0
        CHANNELS 6 Xposition Yposition Zposition Zrotation Xrotation Yrotation
        JOINT head
        {
          OFFSET 0 6.2923 0
          CHANNELS 6 Xposition Yposition Zposition Zrotation Xrotation Yrotation
          End Site
          {
            OFFSET 0 21.2161 0
          }
        }
      }
      JOINT lCollar
      {
        OFFSET 4.0639 26.6115 -1.1234
        CHANNELS 6 Xposition Yposition Zposition Zrotation Xrotation Yrotation
        JOINT lShldr
        {
          OFFSET 14.1772 0 0
          CHANNELS 6 Xposition Yposition Zposition Zrotation Xrotation Yrotation
          JOINT lForeArm
          {
            OFFSET 26.1234 0 0
            CHANNELS 6 Xposition Yposition Zposition Zrotation Xrotation Yrotation
            JOINT lHand
            {
              OFFSET 27.7188 0 0
              CHANNELS 6 Xposition Yposition Zposition Zrotation Xrotation Yrotation
              JOINT lThumb1
              {
                OFFSET 2.2979 -0.4685 1.8313
                CHANNELS 6 Xposition Yposition Zposition Zrotation Xrotation Yrotation
                JOINT lThumb2
                {
                  OFFSET 5.2953 0 0
                  CHANNELS 6 Xposition Yposition Zposition Zrotation Xrotation Yrotation
                  JOINT lThumb3
                  {
                    OFFSET 3.0181 0 0
                    CHANNELS 6 Xposition Yposition Zposition Zrotation Xrotation Yrotation
                    End Site
                    {
                      OFFSET 2.6294 0 0
                    }
                  }
                }
              }
              JOINT lIndex1
              {
                OFFSET 9.3793 0.2991 2.5924
                CHANNELS 6 Xposition Yposition Zposition Zrotation Xrotation Yrotation
                JOINT lIndex2
                {
                  OFFSET 4.3461 0 0
                  CHANNELS 6 Xposition Yposition Zposition Zrotation Xrotation Yrotation
                  JOINT lIndex3
                  {
                    OFFSET 2.1666 0 0
                    CHANNELS 6 Xposition Yposition Zposition Zrotation Xrotation Yrotation
                    End Site
                    {
                      OFFSET 2.2048 0 0
                    }
                  }
                }
              }
              JOINT lMid1
              {
                OFFSET 9.4769 0.8376 0.2947
                CHANNELS 6 Xposition Yposition Zposition Zrotation Xrotation Yrotation
                JOINT lMid2
                {
                  OFFSET 4.772 0 0
                  CHANNELS 6 Xposition Yposition Zposition Zrotation Xrotation Yrotation
                  JOINT lMid3
                  {
                    OFFSET 2.8722 0 0
                    CHANNELS 6 Xposition Yposition Zposition Zrotation Xrotation Yrotation
                    End Site
                    {
                      OFFSET 2.0959 0 0
                    }
                  }
                }
              }
              JOINT lRing1
              {
                OFFSET 8.6586 1.0176 -1.7016
                CHANNELS 6 Xposition Yposition Zposition Zrotation Xrotation Yrotation
                JOINT lRing2
                {
                  OFFSET 4.5461 0 0
                  CHANNELS 6 Xposition Yposition Zposition Zrotation Xrotation Yrotation
                  JOINT lRing3
                  {
                    OFFSET 2.506 0 0
                    CHANNELS 6 Xposition Yposition Zposition Zrotation Xrotation Yrotation
                    End Site
                    {
                      OFFSET 2.2023 0 0
                    }
                  }
                }
              }
              JOINT lPinky1
              {
                OFFSET 7.6901 0.6618 -3.9096
                CHANNELS 6 Xposition Yposition Zposition Zrotation Xrotation Yrotation
                JOINT lPinky2
                {
                  OFFSET 3.2119 0 0
                  CHANNELS 6 Xposition Yposition Zposition Zrotation Xrotation Yrotation
                  JOINT lPinky3
                  {
                    OFFSET 1.924 0 0
                    CHANNELS 6 Xposition Yposition Zposition Zrotation Xrotation Yrotation
                    End Site
                    {
                      OFFSET 1.7829 0 0
                    }
                  }
                }
              }
            }
          }
        }
      }
      JOINT rCollar
      {
        OFFSET -4.0677 26.6109 -1.1234
        CHANNELS 6 Xposition Yposition Zposition Zrotation Xrotation Yrotation
        JOINT rShldr
        {
          OFFSET -14.1772 0 0
          CHANNELS 6 Xposition Yposition Zposition Zrotation Xrotation Yrotation
          JOINT rForeArm
          {
            OFFSET -26.1234 0 0
            CHANNELS 6 Xposition Yposition Zposition Zrotation Xrotation Yrotation
            JOINT rHand
            {
              OFFSET -27.7188 0 0
              CHANNELS 6 Xposition Yposition Zposition Zrotation Xrotation Yrotation
              JOINT rThumb1
              {
                OFFSET -2.2979 -0.4684 1.8313
                CHANNELS 6 Xposition Yposition Zposition Zrotation Xrotation Yrotation
                JOINT rThumb2
                {
                  OFFSET -5.2953 0 0
                  CHANNELS 6 Xposition Yposition Zposition Zrotation Xrotation Yrotation
                  JOINT rThumb3
                  {
                    OFFSET -3.0181 0 0
                    CHANNELS 6 Xposition Yposition Zposition Zrotation Xrotation Yrotation
                    End Site
                    {
                      OFFSET -2.6294 0 0
                    }
                  }
                }
              }
              JOINT rIndex1
              {
                OFFSET -9.3793 0.2991 2.5924
                CHANNELS 6 Xposition Yposition Zposition Zrotation Xrotation Yrotation
                JOINT rIndex2
                {
                  OFFSET -4.3461 0 0
                  CHANNELS 6 Xposition Yposition Zposition Zrotation Xrotation Yrotation
                  JOINT rIndex3
                  {
                    OFFSET -2.1666 0 0
                    CHANNELS 6 Xposition Yposition Zposition Zrotation Xrotation Yrotation
                    End Site
                    {
                      OFFSET -2.2048 0 0
                    }
                  }
                }
              }
              JOINT rMid1
              {
                OFFSET -9.4769 0.8376 0.2947
                CHANNELS 6 Xposition Yposition Zposition Zrotation Xrotation Yrotation
                JOINT rMid2
                {
                  OFFSET -4.772 0 0
                  CHANNELS 6 Xposition Yposition Zposition Zrotation Xrotation Yrotation
                  JOINT rMid3
                  {
                    OFFSET -2.8722 0 0
                    CHANNELS 6 Xposition Yposition Zposition Zrotation Xrotation Yrotation
                    End Site
                    {
                      OFFSET -2.0959 0 0
                    }
                  }
                }
              }
              JOINT rRing1
              {
                OFFSET -8.6586 1.0176 -1.7016
                CHANNELS 6 Xposition Yposition Zposition Zrotation Xrotation Yrotation
                JOINT rRing2
                {
                  OFFSET -4.5461 0 0
                  CHANNELS 6 Xposition Yposition Zposition Zrotation Xrotation Yrotation
                  JOINT rRing3
                  {
                    OFFSET -2.506 0 0
                    CHANNELS 6 Xposition Yposition Zposition Zrotation Xrotation Yrotation
                    End Site
                    {
                      OFFSET -2.2023 0 0
                    }
                  }
                }
              }
              JOINT rPinky1
              {
                OFFSET -7.6901 0.6618 -3.9096
                CHANNELS 6 Xposition Yposition Zposition Zrotation Xrotation Yrotation
                JOINT rPinky2
                {
                  OFFSET -3.2119 0 0
                  CHANNELS 6 Xposition Yposition Zposition Zrotation Xrotation Yrotation
                  JOINT rPinky3
                  {
                    OFFSET -1.924 0 0
                    CHANNELS 6 Xposition Yposition Zposition Zrotation Xrotation Yrotation
                    End Site
                    {
                      OFFSET -1.7829 0 0
                    }
                  }
                }
              }
            }
          }
        }
      }
    }
  }
  JOINT lThigh
  {
    OFFSET 8.7379 -0.0029 0.0005
    CHANNELS 6 Xposition Yposition Zposition Zrotation Xrotation Yrotation
    JOINT lShin
    {
      OFFSET 0 -46.6676 0
      CHANNELS 6 Xposition Yposition Zposition Zrotation Xrotation Yrotation
      JOINT lFoot
      {
        OFFSET 0 -40.1476 0
        CHANNELS 6 Xposition Yposition Zposition Zrotation Xrotation Yrotation
        JOINT lToes
        {
          OFFSET 0 -8.8846 14.2294
          CHANNELS 6 Xposition Yposition Zposition Zrotation Xrotation Yrotation
          End Site
          {
            OFFSET 0 0 6.296
          }
        }
      }
    }
  }
  JOINT rThigh
  {
    OFFSET -8.7379 0.0029 -0.0005
    CHANNELS 6 Xposition Yposition Zposition Zrotation Xrotation Yrotation
    JOINT rShin
    {
      OFFSET 0 -46.6676 0
      CHANNELS 6 Xposition Yposition Zposition Zrotation Xrotation Yrotation
      JOINT rFoot
      {
        OFFSET 0 -40.1476 0
        CHANNELS 6 Xposition Yposition Zposition Zrotation Xrotation Yrotation
        JOINT rToes
        {
          OFFSET 0 -8.8846 14.2294
          CHANNELS 6 Xposition Yposition Zposition Zrotation Xrotation Yrotation
          End Site
          {
            OFFSET 0 0 6.296
          }
        }
      }
    }
  }
}
MOTION
Frames:	4
Frame Time:	0.0333333
-16.6653 46.343 -16.3181 -2.47385 4.27676 28.5411 0 7.2397 0 0.6265 4.87553 9.50854 0 16.546 0 1.73665 11.7695 16.5205 1.77636e-15 34.2149 0 1.94142 29.8439 2.18294 0 6.2923 0 -2.99822 -34.8573 22.7278 4.0639 26.6115 -1.1234 2.87772 -10.4774 -10.0977 14.1772 0 -7.10543e-15 -59.6038 5.93851 -16.038 26.1234 0 0 -106.366 9.78257 -86.412 27.7188 0 0 -8.34367 -41.3709 -20.6133 2.2979 -0.4685 1.8313 37.184 70.9488 -65.392 5.2953 0 0 -13.655 2.43914 4.23129 3.0181 5.32907e-15 -1.42109e-14 40.575 -4.26209 10.4488 9.3793 0.2991 2.5924 -15.7189 8.2617 2.10857 4.3461 0 6.21725e-15 -27.9756 -1.11866 5.59658 2.1666 7.10543e-15 7.10543e-15 -30.2284 -1.57778 5.42756 9.4769 0.8376 0.2947 -15.5574 6.19104 1.80127 4.772 0 -1.77636e-15 -44.2332 -4.15798 10.4286 2.8722 -1.77636e-15 -7.10543e-15 -38.4625 -3.11873 10.6457 8.6586 1.0176 -1.7016 -12.8095 4.05758 0.0154753 4.5461 -1.42109e-14 -5.32907e-15 -68.2419 -4.98723 7.35472 2.506 0 2.66454e-15 -26.1841 0.226371 12.1003 7.6901 0.6618 -3.9096 -1.69591 -16.7036 -0.578561 3.2119 2.84217e-14 -7.10543e-15 -48.2121 -6.75383 15.0249 1.924 0 3.55271e-15 -25.7169 -1.92459 10.2066 -4.0677 26.6109 -1.1234 -8.05606 -9.16995 -8.42775 -14.1772 1.42109e-14 -7.10543e-15 -8.73218 46.0228 62.4225 -26.1234 -7.10543e-15 -1.42109e-14 26.9501 0.618403 119.652 -27.7188 3.55271e-15 1.42109e-14 -23.9078 -25.7461 16.9509 -2.2979 -0.4684 1.8313 -92.2023 72.3373 115.748 -5.2953 1.42109e-14 -1.77636e-15 20.806 -0.164374 -7.80926 -3.0181 1.42109e-14 0 7.44353 -1.87409 -23.1505 -9.3793 0.2991 2.5924 -0.483197 -1.4043 -4.46204 -4.3461 1.77636e-15 1.42109e-14 11.3885 0.0663342 -2.10806 -2.1666 5.32907e-15 -1.42109e-14 35.2115 -1.89997 -5.61242 -9.4769 0.8376 0.2947 -5.7445 -0.492513 -10.345 -4.772 0 1.42109e-14 99.6663 -15.9162 -13.533 -2.8722 4.44089e-16 0 64.9769 -7.76868 -13.6635 -8.6586 1.0176 -1.7016 4.03543 -11.2401 -9.54018 -4.5461 3.55271e-15 0 113.305 -9.33451 -6.15035 -2.506 0 -1.42109e-14 71.4335 -4.52062 -7.1353 -7.6901 0.6618 -3.9096 -3.28617 -26.781 -8.59917 -3.2119 0 7.10543e-15 88.1866 -18.3453 -18.9248 -1.924 -4.44089e-16 0 68.3114 -11.8989 -18.9734 8.7379 -0.0029 0.0005 104.694 -52.5241 107.202 5.32907e-15 -46.6676 -7.10543e-15 136.126 72.0145 -109.506 1.77636e-15 -40.1476 0 -4.45627 -2.67375 18.3802 -1.77636e-15 -8.8846 14.2294 0.0001 0 3.18055e-15 -8.7379 0.0029 -0.0005 -2.05827 -24.0597 -39.9132 -3.55271e-15 -46.6676 -8.88178e-16 -164.964 46.7472 147.774 0 -40.1476 1.44329e-15 -8.38604 -34.5199 -5.18373 0 -8.8846 14.2294 -3.18055e-15 -1.59028e-15 -7.95139e-16 
-15.4453 46.3041 -17.9099 -3.54222 4.15305 29.6983 0 7.2397 0 0.401895 4.65543 9.40279 0 16.546 0 1.1977 11.2991 16.3749 0 34.2149 -7.10543e-15 2.26326 29.9667 2.07793 0 6.2923 0 -1.24383 -34.3957 22.4699 4.0639 26.6115 -1.1234 3.17505 -10.1719 -9.10456 14.1772 -1.42109e-14 0 -60.2747 4.73216 -18.4292 26.1234 0 0 -106.71 9.98637 -86.2865 27.7188 1.42109e-14 0 -3.78388 -40.4167 -17.1703 2.2979 -0.4685 1.8313 37.184 70.9488 -65.392 5.2953 -3.55271e-15 7.10543e-15 -13.655 2.43914 4.23129 3.0181 0 0 40.575 -4.26209 10.4488 9.3793 0.2991 2.5924 -15.7189 8.2617 2.10857 4.3461 1.42109e-14 0 -27.9756 -1.11866 5.59658 2.1666 0 1.77636e-15 -30.2284 -1.57778 5.42756 9.4769 0.8376 0.2947 -15.5574 6.19104 1.80127 4.772 0 -5.77316e-15 -44.2332 -4.15798 10.4286 2.8722 0 3.55271e-15 -38.4625 -3.11873 10.6457 8.6586 1.0176 -1.7016 -12.8095 4.05758 0.0154753 4.5461 0 7.99361e-15 -68.2419 -4.98723 7.35472 2.506 -3.55271e-15 0 -26.1841 0.226371 12.1003 7.6901 0.6618 -3.9096 -1.69591 -16.7036 -0.578561 3.2119 0 0 -48.2121 -6.75383 15.0249 1.924 -3.55271e-15 -1.77636e-15 -25.7169 -1.92459 10.2066 -4.0677 26.6109 -1.1234 -8.23994 -9.41541 -8.86835 -14.1772 0 0 -6.90743 45.7617 62.2353 -26.1234 0 0 26.3471 0.876618 119.866 -27.7188 0 1.42109e-14 -24.8874 -26.3203 16.3873 -2.2979 -0.4684 1.8313 -92.2023 72.3373 115.748 -5.2953 0 1.77636e-15 20.806 -0.164374 -7.80926 -3.0181 0 0 7.44353 -1.87409 -23.1505 -9.3793 0.2991 2.5924 -0.483197 -1.4043 -4.46204 -4.3461 -1.77636e-15 1.42109e-14 11.3885 0.0663342 -2.10806 -2.1666 -8.88178e-16 0 35.2115 -1.89997 -5.61242 -9.4769 0.8376 0.2947 -5.7445 -0.492513 -10.345 -4.772 1.77636e-15 0 99.6663 -15.9162 -13.533 -2.8722 -8.88178e-16 0 64.9769 -7.76868 -13.6635 -8.6586 1.0176 -1.7016 4.03543 -11.2401 -9.54018 -4.5461 0 0 113.305 -9.33451 -6.15035 -2.506 0 -1.42109e-14 71.4335 -4.52062 -7.1353 -7.6901 0.6618 -3.9096 -3.28617 -26.781 -8.59917 -3.2119 7.10543e-15 7.10543e-15 88.1866 -18.3453 -18.9248 -1.924 -8.88178e-16 0 68.3114 -11.8989 -18.9734 8.7379 -0.0029 0.0005 106.992 -52.1444 111.813 0 -46.6676 7.10543e-15 140.017 71.8944 -113.884 0 -40.1476 0 -3.76518 -4.85988 18.1305 0 -8.8846 14.2294 0.0001 0 3.18055e-15 -8.7379 0.0029 -0.0005 -2.29932 -28.8489 -41.0359 -3.55271e-15 -46.6676 1.77636e-15 -162.703 43.4077 141.134 0 -40.1476 3.33067e-15 -5.63028 -28.6222 -4.76533 1.77636e-15 -8.8846 14.2294 -3.18055e-15 -3.18055e-15 -7.95139e-16 
-14.0082 46.6913 -18.5094 -4.51216 3.98652 31.8694 1.77636e-15 7.2397 0 -0.105455 4.49891 9.15264 -1.77636e-15 16.546 0 0.0842233 10.9249 16.0031 0 34.2149 7.10543e-15 2.74515 30.1239 1.93374 0 6.2923 0 1.91283 -33.8182 23.0653 4.0639 26.6115 -1.1234 3.73867 -9.5737 -7.13937 14.1772 0 3.55271e-15 -61.0708 5.04636 -23.2483 26.1234 1.42109e-14 3.55271e-15 -107.1 8.92564 -86.5288 27.7188 0 7.10543e-15 0.576103 -38.3088 -13.7266 2.2979 -0.4685 1.8313 37.184 70.9488 -65.392 5.2953 -7.10543e-15 0 -13.655 2.43914 4.23129 3.0181 -5.32907e-15 0 40.575 -4.26209 10.4488 9.3793 0.2991 2.5924 -15.7189 8.2617 2.10857 4.3461 0 0 -27.9756 -1.11866 5.59658 2.1666 -7.10543e-15 -7.10543e-15 -30.2284 -1.57778 5.42756 9.4769 0.8376 0.2947 -15.5574 6.19104 1.80127 4.772 -1.42109e-14 2.66454e-15 -44.2332 -4.15798 10.4286 2.8722 -3.55271e-15 0 -38.4625 -3.11873 10.6457 8.6586 1.0176 -1.7016 -12.8095 4.05758 0.0154753 4.5461 0 3.33067e-15 -68.2419 -4.98723 7.35472 2.506 0 0 -26.1841 0.226371 12.1003 7.6901 0.6618 -3.9096 -1.69591 -16.7036 -0.578561 3.2119 1.42109e-14 -3.55271e-15 -48.2121 -6.75383 15.0249 1.924 -3.55271e-15 -3.55271e-15 -25.7169 -1.92459 10.2066 -4.0677 26.6109 -1.1234 -8.38206 -9.37463 -9.34547 -14.1772 0 3.55271e-15 -3.05423 47.2211 60.1831 -26.1234 0 -1.42109e-14 25.5068 0.388117 120.192 -27.7188 0 0 -24.1427 -25.8866 17.1792 -2.2979 -0.4684 1.8313 -92.2023 72.3373 115.748 -5.2953 0 1.77636e-15 20.806 -0.164374 -7.80926 -3.0181 0 0 7.44353 -1.87409 -23.1505 -9.3793 0.2991 2.5924 -0.483197 -1.4043 -4.46204 -4.3461 -5.32907e-15 0 11.3885 0.0663342 -2.10806 -2.1666 2.66454e-15 1.42109e-14 35.2115 -1.89997 -5.61242 -9.4769 0.8376 0.2947 -5.7445 -0.492513 -10.345 -4.772 0 0 99.6663 -15.9162 -13.533 -2.8722 1.77636e-15 -1.42109e-14 64.9769 -7.76868 -13.6635 -8.6586 1.0176 -1.7016 4.03543 -11.2401 -9.54018 -4.5461 0 1.42109e-14 113.305 -9.33451 -6.15035 -2.506 0 1.42109e-14 71.4335 -4.52062 -7.1353 -7.6901 0.6618 -3.9096 -3.28617 -26.781 -8.59917 -3.2119 0 -7.10543e-15 88.1866 -18.3453 -18.9248 -1.924 8.88178e-16 -2.84217e-14 68.3114 -11.8989 -18.9734 8.7379 -0.0029 0.0005 108.037 -53.2867 113.455 0 -46.6676 7.10543e-15 145.25 72.1218 -117.793 0 -40.1476 -3.55271e-15 -4.48266 -6.9626 15.981 1.77636e-15 -8.8846 14.2294 0.0001 0 6.36111e-15 -8.7379 0.0029 -0.0005 -3.78513 -32.2956 -41.1589 1.77636e-15 -46.6676 0 -161.552 41.497 137.087 0 -40.1476 8.88178e-16 -3.81644 -23.0092 -3.66112 -3.55271e-15 -8.8846 14.2294 1.10348e-32 -1.59028e-15 3.97569e-16 
-12.9704 47.3547 -18.6425 -5.74263 2.97419 34.9384 0 7.2397 3.55271e-15 -0.526313 4.6201 8.71197 1.77636e-15 16.546 0 -0.855747 11.1158 15.2304 -1.77636e-15 34.2149 0 3.28271 30.1985 1.77735 0 6.2923 1.42109e-14 6.71742 -33.2026 24.7007 4.0639 26.6115 -1.1234 4.40512 -8.83139 -4.66223 14.1772 0 3.55271e-15 -62.6105 6.54988 -30.3848 26.1234 -1.42109e-14 3.55271e-15 -107.744 6.625 -87.1446 27.7188 0 0 4.93829 -34.4137 -10.6736 2.2979 -0.4685 1.8313 37.184 70.9488 -65.392 5.2953 -3.55271e-15 0 -13.655 2.43914 4.23129 3.0181 -3.55271e-15 0 40.575 -4.26209 10.4488 9.3793 0.2991 2.5924 -15.7189 8.2617 2.10857 4.3461 1.42109e-14 -1.77636e-15 -27.9756 -1.11866 5.59658 2.1666 0 7.10543e-15 -30.2284 -1.57778 5.42756 9.4769 0.8376 0.2947 -15.5574 6.19104 1.80127 4.772 0 -1.77636e-15 -44.2332 -4.15798 10.4286 2.8722 3.55271e-15 -3.55271e-15 -38.4625 -3.11873 10.6457 8.6586 1.0176 -1.7016 -12.8095 4.05758 0.0154753 4.5461 0 8.88178e-16 -68.2419 -4.98723 7.35472 2.506 0 -3.55271e-15 -26.1841 0.226371 12.1003 7.6901 0.6618 -3.9096 -1.69591 -16.7036 -0.578561 3.2119 0 3.55271e-15 -48.2121 -6.75383 15.0249 1.924 0 1.77636e-15 -25.7169 -1.92459 10.2066 -4.0677 26.6109 -1.1234 -8.61922 -9.48005 -10.0218 -14.1772 0 -3.55271e-15 3.7218 49.493 54.9513 -26.1234 7.10543e-15 0 29.0606 1.9799 120.72 -27.7188 -1.77636e-15 1.42109e-14 -20.077 -20.3834 20.9487 -2.2979 -0.4684 1.8313 -92.2023 72.3373 115.748 -5.2953 7.10543e-15 0 20.806 -0.164374 -7.80926 -3.0181 1.42109e-14 -8.88178e-16 7.44353 -1.87409 -23.1505 -9.3793 0.2991 2.5924 -0.483197 -1.4043 -4.46204 -4.3461 0 0 11.3885 0.0663342 -2.10806 -2.1666 1.77636e-15 -1.42109e-14 35.2115 -1.89997 -5.61242 -9.4769 0.8376 0.2947 -5.7445 -0.492513 -10.345 -4.772 0 -1.42109e-14 99.6663 -15.9162 -13.533 -2.8722 0 0 64.9769 -7.76868 -13.6635 -8.6586 1.0176 -1.7016 4.03543 -11.2401 -9.54018 -4.5461 0 0 113.305 -9.33451 -6.15035 -2.506 0 -1.42109e-14 71.4335 -4.52062 -7.1353 -7.6901 0.6618 -3.9096 -3.28617 -26.781 -8.59917 -3.2119 -7.10543e-15 1.42109e-14 88.1866 -18.3453 -18.9248 -1.924 3.55271e-15 1.42109e-14 68.3114 -11.8989 -18.9734 8.7379 -0.0029 0.0005 109.191 -55.6131 114.122 -3.55271e-15 -46.6676 -7.10543e-15 148.701 72.6434 -120.874 0 -40.1476 3.55271e-15 -4.46804 -8.46182 14.8288 0 -8.8846 14.2294 0.0001 9.93923e-17 9.54166e-15 -8.7379 0.0029 -0.0005 -5.91886 -35.0619 -40.1315 1.77636e-15 -46.6676 -3.55271e-15 -161.901 40.5749 135.536 0 -40.1476 -8.88178e-16 -4.06408 -18.7406 -1.99877 0 -8.8846 14.2294 -6.36111e-15 0 -6.36111e-15 
